<svg width="24" height="24" viewBox="0 0 24 24" fill="none" xmlns="http://www.w3.org/2000/svg">
<g id="mdi:extension-outline">
<path id="Vector" d="M22.0012 13.5C22.0012 15.26 20.7012 16.72 19.0012 16.96V20C19.0012 20.5304 18.7905 21.0391 18.4154 21.4142C18.0404 21.7893 17.5317 22 17.0012 22H13.2012V21.7C13.2012 20.9839 12.9168 20.2972 12.4104 19.7908C11.9041 19.2845 11.2173 19 10.5012 19C9.00122 19 7.80122 20.21 7.80122 21.7V22H4.00122C3.47079 22 2.96208 21.7893 2.58701 21.4142C2.21193 21.0391 2.00122 20.5304 2.00122 20V16.2H2.30122C3.79122 16.2 5.00122 15 5.00122 13.5C5.00122 12 3.79122 10.8 2.30122 10.8H2.00122V7C2.00122 6.46957 2.21193 5.96086 2.58701 5.58579C2.96208 5.21071 3.47079 5 4.00122 5H7.04122C7.28122 3.3 8.74122 2 10.5012 2C12.2612 2 13.7212 3.3 13.9612 5H17.0012C17.5317 5 18.0404 5.21071 18.4154 5.58579C18.7905 5.96086 19.0012 6.46957 19.0012 7V10.04C20.7012 10.28 22.0012 11.74 22.0012 13.5ZM17.0012 15H18.5012C18.899 15 19.2806 14.842 19.5619 14.5607C19.8432 14.2794 20.0012 13.8978 20.0012 13.5C20.0012 13.1022 19.8432 12.7206 19.5619 12.4393C19.2806 12.158 18.899 12 18.5012 12H17.0012V7H12.0012V5.5C12.0012 5.10218 11.8432 4.72064 11.5619 4.43934C11.2806 4.15804 10.899 4 10.5012 4C10.1034 4 9.72186 4.15804 9.44056 4.43934C9.15926 4.72064 9.00122 5.10218 9.00122 5.5V7H4.00122V9.12C5.76122 9.8 7.00122 11.5 7.00122 13.5C7.00122 15.5 5.75122 17.2 4.00122 17.88V20H6.12122C6.46389 19.1168 7.06547 18.3577 7.84708 17.8224C8.6287 17.287 9.55385 17.0004 10.5012 17C12.5012 17 14.2012 18.25 14.8812 20H17.0012V15Z" fill="#6A74AA"/>
<path id="Vector 496" d="M13.5012 7H8.00122V5.5L11.0012 3L13.5012 7Z" fill="#6A74AA"/>
<path id="Vector 497" d="M17.0012 16V11L21.0012 12V14.5L17.0012 16Z" fill="#6A74AA"/>
</g>
</svg>
