<svg width="24" height="24" viewBox="0 0 24 24" fill="none" xmlns="http://www.w3.org/2000/svg">
<g id="tableau-icon-svgrepo-com 1" clip-path="url(#clip0_319_26518)">
<g id="Group">
<path id="Vector" d="M11.6177 1.321V2.4123H9.66577V3.12209H11.6177V5.29582H12.3807V3.12209H14.3814V2.4123H12.3807V0.234131H11.6177V1.321Z" fill="#7099A6"/>
<path id="Vector_2" d="M5.23819 4.08934V5.67306H2.28369V6.66676H5.23819V9.883H6.33393V6.66676H9.3328V5.67306H6.33393V2.50562H5.23819V4.08934Z" fill="#EB912C"/>
<path id="Vector_3" d="M17.6193 4.08934V5.67306H14.6648V6.71556H17.6193V9.883H18.7594V6.71556H21.7139V5.67306H18.7594V2.50562H17.6193V4.08934Z" fill="#59879B"/>
<path id="Vector_4" d="M11.3336 9.4837V11.2582H8.04639V12.5802H11.3336V16.1291H12.6645V12.5802H15.9517V11.2582H12.6645V7.70923H11.3336V9.4837Z" fill="#E8762C"/>
<path id="Vector_5" d="M21.0002 10.3796V11.493H18.9995V12.3936H21.0002V14.6161H21.9984V12.3936H23.9991V11.493H21.9984V9.27051H21.0002V10.3796Z" fill="#5B6591"/>
<path id="Vector_6" d="M1.95119 10.477V11.5417H-0.000732422V12.2959H1.95119V14.4252H2.71422V12.2959L4.71494 12.2249V11.5417H2.71422V9.41235H1.95119V10.477Z" fill="#7099A6"/>
<path id="Vector_7" d="M5.23819 15.4902V17.0739H2.28369V18.1164H5.23819V21.2839H6.3783V18.1164H9.3328V17.0739H6.3783V13.9065H5.23819V15.4902Z" fill="#C72035"/>
<path id="Vector_8" d="M17.6193 15.4902V17.0739H14.6648V18.0676H17.6193V21.2839H18.7594V18.0676H21.7139V17.0739H18.7594V13.9065H17.6193V15.4902Z" fill="#1F447E"/>
<path id="Vector_9" d="M11.5244 19.5139V20.6229H9.52368V21.5235H11.5244V23.746H12.5225V21.5235H14.5233V20.6229H12.5225V18.4004H11.5244V19.5139Z" fill="#5B6591"/>
</g>
</g>
<defs>
<clipPath id="clip0_319_26518">
<rect width="24" height="24" fill="white"/>
</clipPath>
</defs>
</svg>
